<?xml version="1.0" encoding="UTF-8"?>
<svg id="Layer_1" xmlns="http://www.w3.org/2000/svg" version="1.1" viewBox="0 0 1000 1000">
  <!-- Generator: Adobe Illustrator 29.1.0, SVG Export Plug-In . SVG Version: 2.1.0 Build 142)  -->
  <path d="M622,637q21.4,0,25.6,4.1c6.2,8.2,8.8,17.7,11.7,27.4.5,1.5.9,3,1.4,4.5,1.1,3.6,2.2,7.3,3.3,10.9.6-1.8,1.2-3.6,1.8-5.4.5-1.6,1.1-3.2,1.6-4.8,1.4-4.3,2.8-8.6,4.1-12.9.2-.8.5-1.7.8-2.5.5-1.6.9-3.2,1.4-4.8,2.4-7.9,6.3-12.2,13.4-16.5h19v74h-15c-.3-18.8-.7-37.6-1-57q-3.8,12.5-7.6,24.9c-.5,1.6-1,3.2-1.5,4.7-.2.8-.5,1.6-.7,2.4-1.6,5-3.3,10-5.2,14.9-.6,1.8-1.2,3.7-1.7,5.5-.4,1.5-.9,3-1.3,4.5h-15c-4.7-10.5-7.9-21.3-11.1-32.4-.8-2.7-1.6-5.4-2.4-8.1-.5-1.7-1-3.3-1.5-5-.2-.8-.4-1.5-.7-2.3q-.3-1-.6-2c-1-2.8-2.4-5.5-3.8-8.2-.3,19.1-.7,38.3-1,58h-14v-74Z"/>
  <path d="M256.5,645.5c.4,1.4.9,1.9,1.4,3.4,1.1,3.5,2.2,7.1,3.2,10.6.5,1.5.9,3,1.4,4.6.7,2.2,1.3,4.4,2,6.6.2.7.4,1.4.6,2.1,1.1,3.6,3.1,8.5,4.4,12,.4-1.4.9-4.1,1.3-5.5,1-3.5,2.1-6.9,3.1-10.4.4-1.5.9-3,1.3-4.5,3.4-11.6,6.3-20.4,16.7-27.4h19v74h-14q-.5-28.7-1-58-4,11.1-7.6,22.3c-.2.7-.4,1.4-.6,2.1-.6,2.2-1.3,4.3-1.9,6.5q-5,16.9-7.9,24.1-.5,1.5-1,3h-15c-4-11.6-8.2-23.7-12-35.6-.3-1-.7-2.1-1-3.1-.3-.9-.6-1.8-.9-2.8-1.7-5.2-3.4-10.3-5.1-15.5-.3,18.8-.7,37.6-1,57h-14v-74q19.4,0,25.9,5.6"/>
  <path d="M349,639c5.3-3.5,11.9-2.7,18-2,6,2.6,8.7,8.1,11,14,1.5,5.2,2.8,10.5,4,15.8q2.8,11.6,5.9,23.1c.3.9.6,1.9.8,2.9q1.3,2.9,6.2,4.2v-60h12v74q-21,0-28-5c-7.9-8.3-9.3-21.8-11.9-32.5-.5-2.1-1-4.1-1.5-6.2-.9-3.7-1.8-7.5-2.7-11.2-.2-.7-.4-1.5-.5-2.3-.4-1.8-.3-1.5-1-3.3-1.5-.5-2.6-.6-4-.6-.4,3.3-.6,5.4-.6,8.7,0,1.2,0,2.3,0,3.5q0,1.9,0,3.8c0,1.3,0,2.6,0,3.9,0,3.4-.1,6.8-.2,10.2,0,3.5-.1,7-.2,10.4-.1,6.8-.2,13.6-.3,20.5h-12c0-8.3,0-16.5-.1-24.8,0-3.8,0-7.7,0-11.5,0-3.7,0-7.4,0-11.1,0-1.4,0-2.8,0-4.2,0-2,0-4,0-5.9,0-1.1,0-2.3,0-3.4.2-3.1.9-5.3,2.2-8"/>
  <path d="M549,637q42.1,0,55.5,11.1c8.6,10.2,10.2,20,9.7,32.9-.7,8.6-5.1,16.2-11.2,22.1-3.2,2.3-6.5,4.3-10,6-.7.4-1.4.7-2.1,1.1-4,1.3-7.7,1.2-11.9,1.1-.8,0-1.5,0-2.3,0-2.8,0-5.7,0-8.5,0-6.3,0-12.7,0-19.2-.1v-74ZM563,650v49q15,1,28.1-4.8c6.7-7.1,7.4-14,7.2-23.5-.6-6.8-2.7-11.5-7.6-16.1-8.4-6.3-17.3-4.6-27.8-4.6Z"/>
  <path d="M480,636.9c0,1.8.1,4.8.1,6.6q0,1.5,0,3t-1.1,3.5c-2.4.2-4.8.3-7.2.4-12.3,0-9.7,0-13.8,2.6-2.7,2.7-2.3,6.5-2.3,10.4,0,1.1,0,2.1,0,3.2,0,1.1,0,2.3,0,3.4,0,1.2,0,2.3,0,3.5,0,3.7-.1,7.5-.2,11.2,0,2.5,0,5.1-.1,7.6,0,6.2-.2,12.4-.3,18.6h-15c0-7.7-.1-15.4-.2-23.2,0-2.6,0-5.3,0-7.9,0-3.8,0-7.6,0-11.3,0-1.2,0-2.3,0-3.6,0-1.1,0-2.2,0-3.3,0-1,0-1.9,0-2.9q.4-2.8,3.4-8.8h-27v-13"/>
  <path d="M741.9,663.7c.8,0,1.6,0,2.5,0,2.6,0,5.1,0,7.7,0,1.7,0,3.5,0,5.2,0,4.3,0,8.5,0,12.8.1,0,1.8,0,3.6,0,5.4,0,1,0,2,0,3.1,0,2.5,0-.1,0,3.5-2.1.1-5.4.2-7.6.3-1.3,0-2.7,0-4,0-2.1,0-4.2,0-6.3.1-2,0-4.1,0-6.1.1q-1.8,0-3.7,0c-3.5.3-6.2.9-9.4,2.3q-1.4,2.4-2,5l-1,3c-.3,4-.7,7.9-1,12h42v12h-56q0-33.2,6.2-40.3c.5-.6,1.1-1.3,1.6-1.9,5.7-4.6,12-5.2,19.1-5.1Z"/>
  <path d="M493,669c9.1-6.5,18.5-5.6,29.1-5.3,1.7,0,3.5,0,5.2,0,4.2,0,8.4.1,12.7.2v12c-.9,0-1.8,0-2.8,0-3.4,0-6.8.1-10.2.2-1.5,0-2.9,0-4.4,0-2.1,0-4.2,0-6.3.1-1.3,0-2.5,0-3.8,0-3.9.5-6.3,1.2-9.5,3.4q-2.6,7-3,19h42v12h-56q0-32.5,5-40"/>
  <path d="M320,637h15v74h-15v-74Z"/>
  <path d="M715,637h56v13h-56v-13Z"/>
  <path d="M486,637h56v13h-56v-13Z"/>
  <path d="M718.3,490.2c55.1,13.4,68.4,83.7,22.3,116.1-42.9,26.9-98.8-2.5-98.1-52.1-.6-39.9,35.9-73.2,75.8-64ZM463.4,384.7c15.9-33.2,5.4-72.2-24.5-88.6-29.9-16.5-68.5-4.4-87.9,26.8-.8,1.2-1.5,2.4-2.1,3.7l-104.4,189.9c-1.5,2.6-2.7,5.3-3.8,8-13.1,32.2-2.3,68.6,26.3,84.4,28.6,15.8,65.2,5.4,85.3-22.9,1.7-2.4,3.3-5,4.7-7.6l104.4-189.9c.7-1.2,1.4-2.5,1.9-3.8M671.4,383.9c15.9-33.2,5.4-72.2-24.5-88.6-29.9-16.5-68.5-4.4-87.9,26.8-.8,1.2-1.5,2.4-2.1,3.7l-104.4,189.9c-1.5,2.6-2.7,5.3-3.8,8-13.1,32.2-2.3,68.6,26.3,84.4,28.7,15.8,65.2,5.4,85.3-22.9,1.7-2.4,3.3-5,4.7-7.6l104.4-189.9c.7-1.2,1.4-2.5,1.9-3.8h.1Z"/>
</svg>