<?xml version="1.0" encoding="UTF-8"?>
<svg id="Layer_1" xmlns="http://www.w3.org/2000/svg" version="1.1" viewBox="0 0 5198.4 5198.4">
  <!-- Generator: Adobe Illustrator 29.1.0, SVG Export Plug-In . SVG Version: 2.1.0 Build 142)  -->
  <defs>
    <style>
      .st0 {
        fill: #fbfcfb;
      }

      .st1 {
        fill: #fefef7;
      }

      .st2 {
        fill: #fdfefd;
      }

      .st3 {
        fill: #0b4cd2;
      }

      .st4 {
        fill: #fefef8;
      }

      .st5 {
        fill: #0f53c9;
      }

      .st6 {
        fill: #0e55cb;
      }

      .st7 {
        fill: #fefefa;
      }

      .st8 {
        fill: #1a5ec0;
      }
    </style>
  </defs>
  <g>
    <path class="st5" d="M1122.2,1349.2c579.6-22.5,638.7,423.4,1185.6,99,98.3-40.9,214.6-79.9,325-89.2,611-68.1,733.6,317.8,1037.2,303.4,45.6-4.1,87.9-25.4,117.9-47,42-24.8,78.3-51.3,123.3-78.6,233.5-124.4,534.2-124.9,779,3.6,122.6,72.5,224.8,165.1,300.2,287.7,232.8,374.8,112,902.1-269.8,1125.6-345.7,178.5-594.2,99.9-705.4,573.3-320.7,939.8-1582.4,994.3-1996,119.9-381.6-504.2-717.5,94.3-1370.4-280.5-357.3-186.9-582.8-590.3-557.4-1005.9,51.5-581.2,485.4-976.6,1030.9-1011.2h-.1Z"/>
    <path class="st3" d="M1876.5,969.3c261.7,44.5,265.9,417.2,2.5,463.5-70.8,17.3-170.8-14.8-210.1-65.7,2-6.6-8.9-4.1-7.1-10.7-8.4,0-11.3-9.5-14.3-16.1-44.3-56.8-54.7-137.8-33.6-209,1.8-6.8,4.1-11.6,6.8-14.3,5.4-13.4,12.1-26.1,18.6-39.1,49.8-81.8,142.6-121.3,237.3-108.6v.2-.2s0,0,0,0h0Z"/>
    <path class="st8" d="M4515.8,3344.5c18.2,0,36.4.2,54.7.4v3.6c38.6,3.6,81.6,26.8,110.8,51.8v3.6c7.7,0,10.5,6.6,14.3,12.5,5.2,5,9.6,9.5,12.5,16.1,1.8.5,3.6,1.3,5.4,1.8v5.4h3.6c76.3,137.9,17.3,315.2-147.6,341.8-92.7,18.6-195.8-28.9-234.4-116.5-27.9-54.9-29.3-120.2-9.8-178,5.4-15.2,17.9-48.4,32.7-54.3,1.5-3.6,2.7-7.1,3.6-10.7h3.6c1.3-3.6,2.3-7.1,3.6-10.7h5.4c2.3-4.8,2.9-6.8,7.1-10.7h7.1c.6-1.8,1.2-3.6,1.8-5.4,3.1-1.4,6.1-2.6,8.9-3.6v-3.6h3.6v-3.6c6.3-.2,8.6-3.2,10.7-8.9,6.4-6.6,11.8-8,20.4-9.6,26.8-9.1,53.2-22.2,82.2-21.1v-.2h-.2c0-.1,0-.1,0-.1Z"/>
    <path class="st6" d="M3196.5,931.1c89.7-11.3,172.1,40.6,175.4,137-.2,42.2-16.1,93.1-54,114.9-15.7,9.5-30.2,20.5-48.2,25-41.3,14.5-95.9,2-129.2-23.9-51.3-37.5-68.8-121-38.9-176.9,3-4.5,5.9-8.4,8.4-13.2,8-16.6,24.1-23.8,34.7-38.1,11.3-2.7,16.8-13.8,28.6-14.3,8-3.4,17.3-3.8,23.2-10.7v.2Z"/>
    <circle class="st3" cx="1839" cy="1202.5" r="235.7"/>
    <circle class="st3" cx="3229.4" cy="1071.9" r="140.8"/>
    <circle class="st3" cx="4535.1" cy="3564.8" r="223.2"/>
  </g>
  <g>
    <path class="st4" d="M2202.1,1749.4c165.4-14.3,280.7,226.4,333.7,349.8,39.7,79.7,55.9-167.4,73.6-181.9-7.9-85.6,92.4-108.1,141.1-57.2,32.3,122.9-16.6,255.1-12.1,382.9-15.7,205.1,39.3,673.4-300.5,508.7-108.4-56.8-64-204.4-48.2-289.4,9.5-135.2-11.6-278.7-76.8-387.7-126-92.5,65.7,511.7-17.9,571.7-56.1,108.8-296.2,70.4-332.3-39.3-23.4-15.2-5.9,52-71.5,80.4-88.3,10.9-245.5,60.6-298.4-32.2-9.8-12.7-7.9-31.4-17.9-42.9-25,103.8-144.5,124.4-232.3,141.1-273,20.9-181.5-459-215.1-636.2-5.5-20.4,5-107.2-22.5-101.7-36.4,114.2,28.4,298.5-63.2,369.5-132.7,40.6-198.3-133.6-279.1-207.6-13.9-30.2-67.9-31.6-43.6,6.1,59,77.2,136.3,146.1,205.3,217.6,102.7,101.7,292.8,330.2,128.8,447-317.1,173.5-367.9,42.5-389.5-257.3-13-162.2-92.7-316.6-128.6-462.7-43.6-244.1,156.5-311.9,287.7-121.5,185.5,180.8,52.7,45.6,112.6-150.1,129.9-243.2,329.6-18.4,356.6,169.2,56.6,264.8,144.4,246.9,261.6,438.3,34.7,69.7,28.7-37.2,38.2-73.4,20.5-109.4,40.2-228.2,37.7-344.6-26.3-99.5,100.2-164.4,162.2-88.1,30.2,49.8,16.6,108.1,38.4,158.8,24.8,134.7,102.6,246,116.7,381.1,14.3-32.9,25-73.4,38.1-109.2,52.5-100.6,85.8-208.3,121-319.6,25.5-97.9,17.9-254.1,96.5-319.8l-.2.2h-.1,0Z"/>
    <path class="st1" d="M4642.6,2267.5c-50.7-199.7-184.7-429.2-404.1-473.8-113.1-21.8-201.5,24.3-289.1,79-17.5,10.9-24.7,14.1-27.5,32,2,60.9,7,63.4-45.7,32.3-89.2-53.2-228.7-29.5-310.9,26.8-61.1-151-405.6-118.3-557.6-158.7-237.4-72.9-329.5,229.8-129.9,225.7,334.3-60,33.8,457.4-7.7,597.5-71.3,113.5,11.1,238,146.1,236.6,91.7,6.3,223.3,49.3,277.5-52,55.7-150.3-61.3-317.7-71.6-463.1-3-105.4,1.6-298,166.2-250.1,51.8,15,84.9,16.1,84.9,66.1,0,136.9-14.1,288,33.1,410.9,32.2,152.6,157.4,339.3,343,289.4,64.1-16.8,147-16.6,189.4-76.8,81.6-69.9,75.2-246-3.6-310.9-42.9-63.4-132.2-33.6-201.9-37.5-66.8-8.4-124.4-125.1-21.3-132.4,109.2-.4,220.3-81.1,98.1-167.8-57.8,3.3-198.6,73.8-180.5-44.7,74.7-7.7,144.1-40.8,209-80.4,41.3,94.9,104.9,165.8,150.3,262.8,41.5,85.6,79.1,179,71.3,271.7-42,122.4,49.7,266.2,185.6,199.7,223.9-69,390.9-236.6,296.6-482.4h.4-.1ZM4362.1,2271.1c-78.8,13.6-219-269.8-137.6-291.6,83.3-20.2,204.8,248,137.6,291.6Z"/>
    <path class="st7" d="M2515.8,2978.2c131.1-32,140.8,358.2,188.7,163.5,23.2-35.9,32.3-82,72.4-111.5,49.8-56.5,154-32.9,179.4,35.6,49.5,137.6-21.6,283.9,12.3,418.4,29.7,83.8,92,187.1,43.1,278.9-53.8,96.5-219,84.2-289.6,15.9-115.2-87.7,184.9-612.1,96.5-539.6-53.2,140.8-166.9,348.8-247.3,84.5-4.3-38.8-71.6-215.3-52.9-75.6,47.5,150.8,212.8,392.5,62.9,535.5-354.5,75.8-307.1-110.8-224.4-362.9,41.1-146.9-27.9-414.7,159.2-442.7h-.3,0Z"/>
    <path class="st4" d="M3216.4,2937.2c67-7.7,148.7,33.5,136.3,114.7-4.4,23.6-176.4,27.2-173.3,67.9,2.4,103.1,258.3-35.2,216.2,110.8-38.9,48.6-215.1,33.8-138.1,127.4,66.6,85.8,199.6-61.8,268.4,92.2,111.3,199.7-98.6,339.5-289.1,303.9-265.3-85.8-411.8-819.9-20.2-816.9h-.2,0Z"/>
    <path class="st2" d="M1711.5,1722.2c90.6-10.4,125.8,113.8,45.7,152.2-147.6,59.7-213.1-150.4-45.7-152.2Z"/>
    <path class="st0" d="M3735,3486c89.5,56.6,30.4,198.9-74.5,161.7-113.6-40-32.3-212.6,74.5-161.7Z"/>
  </g>
</svg>